<?xml version="1.0" encoding="utf-8"?>
<svg version="1.1" xmlns:xlink="http://www.w3.org/1999/xlink" width="12px" height="12px" viewBox="24 252.5  12 12" xmlns="http://www.w3.org/2000/svg">
  <path d="M 30 252.5  C 33.36 252.5  36 255.14  36 258.5  C 36 261.86  33.36 264.5  30 264.5  C 26.64 264.5  24 261.86  24 258.5  C 24 255.14  26.64 252.5  30 252.5  Z " fill-rule="nonzero" fill="#ffffff" stroke="none" />
  <path d="M 30 253  C 33.08 253  35.5 255.42  35.5 258.5  C 35.5 261.58  33.08 264  30 264  C 26.92 264  24.5 261.58  24.5 258.5  C 24.5 255.42  26.92 253  30 253  Z " stroke-width="1" stroke="#797979" fill="none" />
  <path d="M 30 261.5  C 28.32 261.5  27 260.18  27 258.5  C 27 256.82  28.32 255.5  30 255.5  C 31.68 255.5  33 256.82  33 258.5  C 33 260.18  31.68 261.5  30 261.5  " fill-rule="nonzero" fill="#797979" stroke="none" />
</svg>